# xmcd CD database file
#
# Track frame offsets:
#	150
#	41610
#	72366
#	97564
#	145495
#	162270
#	181386
#	207687
#	246005
#	287952
#
# Disc length: 4110 seconds
#
# Revision: 0
# Processed by: cddbd v1.5PL3 Copyright (c) Steve Scherf et al.
# Submitted via: CDex 1.51
#
DISCID=94100c0a
DTITLE=Malachi Thompson and the Africa Brass - Blue Jazz
DYEAR=2003
DGENRE=Jazz
TTITLE0=Black Metropolis
TTITLE1=The Panther
TTITLE2=Jazz Revelations
TTITLE3=Genesis/Rebirth
TTITLE4=Po' Little Louie (I)
TTITLE5=Get On The Train (II)
TTITLE6=Blues For A Saint Called Louis Suite (III)
TTITLE7=Blue Jazz
TTITLE8=Footprints
TTITLE9=Mud Hole
EXTD=YEAR: 2003
EXTT0=
EXTT1=
EXTT2=
EXTT3=
EXTT4=
EXTT5=
EXTT6=
EXTT7=
EXTT8=
EXTT9=
PLAYORDER=
